<svg width="31" height="25" viewBox="0 0 31 25" fill="none" xmlns="http://www.w3.org/2000/svg">
<path d="M30.7227 2.96224C29.5898 3.46354 28.3789 3.80208 27.1029 3.95833C28.4049 3.17708 29.4076 1.9401 29.8763 0.46875C28.6589 1.19141 27.3112 1.71875 25.8724 1.9987C24.72 0.768229 23.0794 0 21.2695 0C17.7865 0 14.9674 2.82552 14.9674 6.30859C14.9674 6.80338 15.0195 7.28516 15.1302 7.7474C9.88932 7.48698 5.24088 4.97396 2.13542 1.15234C1.59505 2.08333 1.28255 3.17057 1.28255 4.32292C1.28255 6.51042 2.40234 8.44401 4.09505 9.57682C3.05339 9.55078 2.07682 9.26432 1.23047 8.78906C1.23047 8.8151 1.23047 8.84114 1.23047 8.86719C1.23047 11.9271 3.40495 14.4727 6.28906 15.0521C5.76172 15.1953 5.20182 15.2734 4.62891 15.2734C4.22526 15.2734 3.82812 15.2344 3.44401 15.1563C4.24479 17.6628 6.57552 19.4857 9.33594 19.5378C7.18099 21.2305 4.45964 22.2396 1.50391 22.2396C0.996094 22.2396 0.494792 22.207 0 22.1484C2.77995 23.9583 6.09375 25 9.64844 25C21.2565 25 27.5977 15.3841 27.5977 7.04427C27.5977 6.77083 27.5911 6.4974 27.5781 6.23047C28.8086 5.33854 29.8763 4.23177 30.7227 2.96224Z" fill="black"/>
</svg>
