<svg width="36" height="25" viewBox="0 0 36 25" fill="none" xmlns="http://www.w3.org/2000/svg">
<path d="M34.8126 3.91165C34.4037 2.37194 33.1989 1.15931 31.6691 0.747786C28.8964 0 17.7778 0 17.7778 0C17.7778 0 6.65931 0 3.88646 0.747787C2.35671 1.15938 1.15189 2.37194 0.742969 3.91165C0 6.70247 0 12.5253 0 12.5253C0 12.5253 0 18.348 0.742969 21.1389C1.15189 22.6786 2.35671 23.8407 3.88646 24.2522C6.65931 25 17.7778 25 17.7778 25C17.7778 25 28.8963 25 31.6691 24.2522C33.1989 23.8407 34.4037 22.6786 34.8126 21.1389C35.5556 18.348 35.5556 12.5253 35.5556 12.5253C35.5556 12.5253 35.5556 6.70247 34.8126 3.91165ZM14.1414 17.8119V7.23861L23.4343 12.5254L14.1414 17.8119Z" fill="black"/>
</svg>
